<?xml version="1.0" standalone="no"?>
<!DOCTYPE svg PUBLIC "-//W3C//DTD SVG 20010904//EN"
 "http://www.w3.org/TR/2001/REC-SVG-20010904/DTD/svg10.dtd">
<svg version="1.0" xmlns="http://www.w3.org/2000/svg"
 width="144.000000pt" height="144.000000pt" viewBox="0 0 144.000000 144.000000"
 preserveAspectRatio="xMidYMid meet">
<metadata>
Created by potrace 1.14, written by Peter Selinger 2001-2017
</metadata>
<g transform="translate(0.000000,144.000000) scale(0.100000,-0.100000)"
fill="#000000" stroke="none">
<path d="M185 1125 c-30 -30 -32 -64 -4 -99 25 -32 75 -35 112 -6 24 19 40 20
427 20 387 0 403 -1 427 -20 79 -62 179 35 108 105 -30 31 -73 32 -108 5 -24
-19 -40 -20 -427 -20 -387 0 -403 1 -427 20 -35 27 -78 26 -108 -5z"/>
<path d="M332 978 c-17 -17 -15 -45 4 -52 9 -3 87 -6 174 -6 119 0 160 -3 169
-13 7 -9 12 -111 13 -308 3 -294 3 -294 25 -297 41 -6 45 21 42 319 -2 170 1
283 7 289 5 5 86 11 179 12 l170 3 3 24 c2 13 -2 28 -10 32 -22 14 -762 11
-776 -3z"/>
<path d="M181 884 c-35 -45 -24 -96 27 -123 26 -14 58 -7 88 20 19 18 34 19
140 17 l119 -3 3 -243 c2 -231 1 -245 -18 -269 -28 -36 -26 -78 6 -110 21 -21
32 -24 62 -19 66 10 93 76 53 128 -18 23 -20 45 -23 297 -3 228 -5 273 -18
281 -8 5 -80 10 -158 10 -129 0 -147 2 -169 20 -37 29 -87 26 -112 -6z"/>
<path d="M1147 890 c-22 -18 -40 -20 -165 -20 -77 0 -147 -3 -156 -6 -14 -5
-16 -39 -16 -273 l0 -267 -25 -34 c-39 -53 -31 -100 22 -128 34 -18 62 -14 88
13 32 31 34 84 5 110 -20 18 -20 29 -18 264 l3 246 119 3 c106 2 121 1 140
-17 12 -10 31 -22 43 -25 26 -8 78 16 87 39 32 83 -57 150 -127 95z"/>
</g>
</svg>
