<?xml version="1.0" standalone="no"?>
<!DOCTYPE svg PUBLIC "-//W3C//DTD SVG 20010904//EN"
 "http://www.w3.org/TR/2001/REC-SVG-20010904/DTD/svg10.dtd">
<svg version="1.0" xmlns="http://www.w3.org/2000/svg"
 width="700.000000pt" height="700.000000pt" viewBox="0 0 700.000000 700.000000"
 preserveAspectRatio="xMidYMid meet">
<metadata>
Created by potrace 1.14, written by Peter Selinger 2001-2017
</metadata>
<g transform="translate(0.000000,700.000000) scale(0.100000,-0.100000)"
fill="#000000" stroke="none">
<path d="M460 5795 l0 -505 810 0 810 0 0 -2170 0 -2170 885 0 885 0 0 1254 0
1255 543 4 c585 4 579 4 755 63 323 108 543 363 617 715 74 349 12 724 -159
962 -50 71 -149 168 -219 216 -128 87 -318 151 -508 171 -61 6 -431 10 -940
10 l-839 0 0 193 0 194 773 6 c940 9 1092 1 1349 -64 461 -116 789 -412 931
-840 87 -261 107 -569 56 -869 -107 -637 -534 -1054 -1169 -1145 -75 -10 -196
-15 -427 -15 l-323 0 0 -155 0 -155 308 0 c425 0 602 22 846 107 100 35 264
112 340 161 405 259 671 701 741 1230 17 132 20 438 4 562 -50 404 -204 735
-459 990 -211 209 -468 349 -791 429 -283 70 -82 65 -2571 68 l-2248 3 0 -505z
m1268 195 l352 0 0 -195 0 -195 -660 0 -660 0 0 202 0 201 308 -6 c169 -4 466
-7 660 -7z m1062 -195 l0 -195 -200 0 -200 0 0 195 0 195 200 0 200 0 0 -195z
m0 -2355 l0 -1850 155 0 155 0 0 1850 0 1850 220 0 220 0 0 -565 0 -565 155 0
155 0 0 565 0 565 486 0 c592 0 651 -7 818 -93 200 -103 314 -306 333 -590 12
-194 -38 -425 -120 -549 -89 -133 -238 -230 -417 -270 -91 -20 -125 -22 -752
-25 l-658 -4 0 -1250 0 -1249 -575 0 -575 0 0 2015 0 2015 200 0 200 0 0
-1850z"/>
</g>
</svg>
